<svg width="117" height="52" viewBox="0 0 117 52" fill="none" xmlns="http://www.w3.org/2000/svg">
<path d="M0.236328 52V0.964844H20.9551C23.3418 0.964844 25.6777 1.29492 27.9629 1.95508C30.248 2.61523 32.3047 3.63086 34.1328 5.00195C36.0117 6.32227 37.4844 8.02344 38.5508 10.1055C39.668 12.1875 40.2266 14.6504 40.2266 17.4941C40.2266 20.6426 39.3887 23.3086 37.7129 25.4922C36.0879 27.625 33.9297 29.25 31.2383 30.3672C28.5977 31.4336 25.7539 31.9668 22.707 31.9668C21.9453 31.9668 20.9551 31.8906 19.7363 31.7383C18.5684 31.5352 17.3242 31.332 16.0039 31.1289C14.6836 30.875 13.4395 30.6465 12.2715 30.4434C11.1543 30.1895 10.291 29.9863 9.68164 29.834V23.3594C11.0527 23.8672 12.5762 24.2734 14.252 24.5781C15.9785 24.8828 17.7051 25.0352 19.4316 25.0352C22.4785 25.0352 24.8906 24.3496 26.668 22.9785C28.4961 21.6074 29.4102 19.7793 29.4102 17.4941C29.4102 15.0059 28.4453 13.1523 26.5156 11.9336C24.6367 10.7148 22.3262 10.1055 19.584 10.1055H10.8242V52H0.236328ZM28.5723 52L9.68164 29.834L18.8223 26.5586L42.5117 52H28.5723ZM61.7832 52L44.873 0.964844H56.9082L66.3535 33.1855L77.0176 0.964844H84.1016L94.6895 33.1855L104.363 0.964844H116.398L99.1074 52H91.7949L80.5215 19.1699L69.0957 52H61.7832Z" fill="white"/>
</svg>
